<svg width="21" height="21" viewBox="0 0 21 21" fill="none" xmlns="http://www.w3.org/2000/svg">
<g clip-path="url(#clip0_20_2802)">
<path fill-rule="evenodd" clip-rule="evenodd" d="M10.0511 11.6999C10.9352 11.6999 11.783 11.3487 12.4081 10.7236C13.0333 10.0984 13.3844 9.25059 13.3844 8.36654C13.3844 7.48248 13.0333 6.63463 12.4081 6.00951C11.783 5.38439 10.9352 5.0332 10.0511 5.0332C9.16705 5.0332 8.31921 5.38439 7.69408 6.00951C7.06896 6.63463 6.71777 7.48248 6.71777 8.36654C6.71777 9.25059 7.06896 10.0984 7.69408 10.7236C8.31921 11.3487 9.16705 11.6999 10.0511 11.6999ZM10.0511 10.8665C10.3794 10.8665 10.7045 10.8019 11.0078 10.6762C11.3111 10.5506 11.5867 10.3664 11.8189 10.1343C12.051 9.90216 12.2352 9.62656 12.3608 9.32325C12.4864 9.01993 12.5511 8.69484 12.5511 8.36654C12.5511 8.03823 12.4864 7.71314 12.3608 7.40983C12.2352 7.10651 12.051 6.83092 11.8189 6.59877C11.5867 6.36662 11.3111 6.18247 11.0078 6.05684C10.7045 5.9312 10.3794 5.86654 10.0511 5.86654C9.38807 5.86654 8.75218 6.12993 8.28334 6.59877C7.8145 7.06761 7.55111 7.7035 7.55111 8.36654C7.55111 9.02958 7.8145 9.66546 8.28334 10.1343C8.75218 10.6031 9.38807 10.8665 10.0511 10.8665Z" fill="black"/>
<path fill-rule="evenodd" clip-rule="evenodd" d="M18.3844 10.4486C18.3844 15.0511 14.6536 18.7819 10.0511 18.7819C5.44861 18.7819 1.71777 15.0511 1.71777 10.4486C1.71777 5.84607 5.44861 2.11523 10.0511 2.11523C14.6536 2.11523 18.3844 5.84607 18.3844 10.4486ZM14.0636 16.7861C12.8642 17.5479 11.472 17.9512 10.0511 17.9486C8.59625 17.9512 7.17238 17.5283 5.95486 16.7319C5.85486 16.6069 5.75347 16.4777 5.65069 16.3444C5.53148 16.1883 5.46718 15.9971 5.46777 15.8007C5.46777 15.3519 5.79027 14.9757 6.22152 14.9127C9.07361 14.4961 11.0374 14.5319 13.8932 14.9273C14.0999 14.9575 14.2887 15.0614 14.4249 15.2198C14.5611 15.3782 14.6355 15.5805 14.6344 15.7894C14.6344 15.9894 14.5657 16.1836 14.4415 16.3352C14.3135 16.4911 14.1875 16.6413 14.0636 16.7861ZM15.4615 15.6427C15.3949 14.8627 14.8028 14.2119 14.0074 14.1019C11.084 13.6973 9.04069 13.6586 6.10111 14.0882C5.30111 14.2048 4.71152 14.8615 4.64152 15.6436C3.29791 14.2482 2.54846 12.3857 2.55111 10.4486C2.55111 6.30648 5.90902 2.94857 10.0511 2.94857C14.1932 2.94857 17.5511 6.30648 17.5511 10.4486C17.5538 12.3853 16.8046 14.2474 15.4615 15.6427Z" fill="black"/>
</g>
<defs>
<clipPath id="clip0_20_2802">
<rect width="20" height="20" fill="white" transform="translate(0.0507812 0.449219)"/>
</clipPath>
</defs>
</svg>
